<svg height="512pt" viewBox="0 0 512 512.00151" width="512pt" xmlns="http://www.w3.org/2000/svg"><path d="m437.230469 72.046875c-11.972657 5.425781-20.304688 17.46875-20.304688 31.46875s8.332031 26.046875 20.304688 31.46875c11.972656-5.421875 20.304687-17.46875 20.304687-31.46875s-8.332031-26.042969-20.304687-31.46875zm0 0" fill="#f29c0b"/><path d="m323.351562 13.847656c-21.660156 7.882813-37.128906 28.652344-37.128906 53.035156 0 24.386719 15.46875 45.15625 37.128906 53.035157 21.660157-7.878907 37.132813-28.648438 37.132813-53.035157 0-24.382812-15.472656-45.152343-37.132813-53.035156zm0 0" fill="#e31e10"/><path d="m219.34375 116.300781c-17.699219 7.085938-30.210938 24.390625-30.210938 44.621094h60.421876c0-20.230469-12.507813-37.535156-30.210938-44.621094zm0 0" fill="#45ad02"/><path d="m100.25 68.878906c-16.882812 7.457032-28.675781 24.335938-28.675781 43.980469s11.792969 36.523437 28.675781 43.980469c16.886719-7.457032 28.675781-24.335938 28.675781-43.980469s-11.789062-36.523437-28.675781-43.980469zm0 0" fill="#0092e0"/><path d="m119.640625 160.921875h381.898437v56.425781h-381.898437zm0 0" fill="#6361b5"/><path d="m501.539062 217.347656h-386.601562l193.300781 193.300782zm0 0" fill="#38388e"/><path d="m285.511719 365.457031c-2.675781 0-5.347657-1.019531-7.386719-3.0625-4.082031-4.078125-4.082031-10.695312 0-14.777343l76.375-76.371094c4.078125-4.082032 10.695312-4.082032 14.777344 0 4.078125 4.078125 4.078125 10.695312 0 14.777344l-76.375 76.371093c-2.042969 2.042969-4.714844 3.0625-7.390625 3.0625zm98.800781-98.796875c-2.675781 0-5.347656-1.019531-7.390625-3.0625-4.078125-4.078125-4.078125-10.695312 0-14.777344 4.082031-4.082031 10.734375-4.113281 14.8125-.035156 4.082031 4.082032 4.117187 10.660156.035156 14.742188l-.070312.070312c-2.039063 2.042969-4.714844 3.0625-7.386719 3.0625zm0 0"/><path d="m446.320312 89.628906c-2.710937 0-5.417968-1.046875-7.460937-3.140625l-.007813-.003906-.09375-.097656c-4.058593-4.101563-4.023437-10.71875.078126-14.777344 4.101562-4.054687 10.71875-4.023437 14.777343.082031l.171875.175782c4.035156 4.125 3.96875 10.742187-.152344 14.78125-2.035156 1.988281-4.675781 2.980468-7.3125 2.980468zm0 0"/><path d="m423.175781 147.164062c-24.195312 0-43.882812-19.683593-43.886719-43.882812 0-21.511719 15.378907-39.710938 36.570313-43.273438 5.695313-.953124 11.078125 2.882813 12.035156 8.574219.957031 5.6875-2.878906 11.078125-8.570312 12.035157-11.085938 1.863281-19.136719 11.398437-19.136719 22.664062.003906 12.675781 10.3125 22.988281 22.988281 22.988281 11.320313 0 21.09375-8.425781 22.742188-19.597656.839843-5.707031 6.152343-9.65625 11.859375-8.8125 5.707031.839844 9.65625 6.148437 8.816406 11.859375-3.148438 21.347656-21.8125 37.445312-43.417969 37.445312zm0 0"/><path d="m304.058594 133.757812c-17.859375 0-34.652344-6.957031-47.285156-19.589843-14.933594-14.933594-21.976563-36.332031-18.84375-57.242188.855468-5.707031 6.175781-9.640625 11.882812-8.785156s9.640625 6.175781 8.785156 11.882813c-2.191406 14.597656 2.53125 28.949218 12.953125 39.367187 8.683594 8.683594 20.226563 13.46875 32.507813 13.46875s23.824218-4.785156 32.507812-13.464844c8.6875-8.683593 13.46875-20.230469 13.46875-32.511719s-4.78125-23.824218-13.46875-32.507812c-10.167968-10.167969-24.195312-14.933594-38.472656-13.078125-5.722656.746094-10.964844-3.292969-11.710938-9.015625-.742187-5.722656 3.292969-10.964844 9.015626-11.710938 20.769531-2.695312 41.15625 4.238282 55.945312 19.027344 12.632812 12.632813 19.585938 29.425782 19.585938 47.285156 0 17.863282-6.953126 34.65625-19.585938 47.285157-12.628906 12.632812-29.421875 19.589843-47.285156 19.589843zm0 0"/><path d="m264.160156 37.4375c-2.679687 0-5.363281-1.027344-7.402344-3.078125-4.070312-4.089844-4.058593-10.707031.03125-14.777344l.113282-.113281c4.089844-4.070312 10.707031-4.054688 14.777344.035156 4.070312 4.085938 4.058593 10.703125-.03125 14.773438l-.113282.113281c-2.039062 2.03125-4.707031 3.046875-7.375 3.046875zm0 0"/><path d="m501.539062 150.472656h-242.476562c-2.089844-11.648437-7.648438-22.378906-16.195312-30.925781-11.054688-11.050781-25.746094-17.136719-41.378907-17.136719-28.695312 0-52.617187 20.769532-57.558593 48.0625h-18.257813c8.863281-10.523437 13.703125-23.695312 13.703125-37.613281 0-15.628906-6.085938-30.324219-17.136719-41.375-11.050781-11.054687-25.746093-17.140625-41.375-17.140625-32.265625 0-58.515625 26.25-58.515625 58.515625-.003906 13.917969 4.839844 27.089844 13.703125 37.613281h-25.601562c-5.769531 0-10.449219 4.679688-10.449219 10.449219v56.425781c.0078125 0 .015625-.003906.0273438-.003906 0 2.71875 1.0351562 5.394531 3.0351562 7.390625l192.328125 192.332031v84.488282c0 3.390624 1.648437 6.574218 4.421875 8.53125 1.785156 1.261718 3.898438 1.914062 6.03125 1.914062 1.171875 0 2.351562-.195312 3.484375-.597656l100.308594-35.527344c4.171875-1.476562 6.960937-5.421875 6.960937-9.847656v-48.960938l192.332032-192.332031c1.996093-1.996094 3.035156-4.671875 3.035156-7.390625.007812.003906.015625.003906.023437.003906v-56.425781c0-5.769531-4.679687-10.449219-10.449219-10.449219zm-300.050781-27.164062c10.050781 0 19.496094 3.910156 26.601563 11.015625 4.566406 4.566406 7.808594 10.105469 9.542968 16.148437h-72.269531c4.539063-15.667968 19.011719-27.164062 36.125-27.164062zm-147.226562 16.148437c-7.105469-7.105469-11.019531-16.550781-11.019531-26.597656 0-20.742187 16.875-37.613281 37.621093-37.613281 10.046875 0 19.492188 3.910156 26.597657 11.015625 7.105468 7.105469 11.015624 16.550781 11.015624 26.601562 0 10.042969-3.910156 19.492188-11.015624 26.59375-7.105469 7.105469-16.554688 11.019531-26.601563 11.019531-10.046875-.003906-19.492187-3.914062-26.597656-11.019531zm244.496093 265.890625c-1.957031 1.960938-3.058593 4.617188-3.058593 7.390625v45.902344l-79.410157 28.125v-74.027344c0-2.773437-1.101562-5.429687-3.0625-7.390625l-177.550781-177.554687h440.636719zm192.332032-198.449218h-470.191406v-35.527344h470.191406zm0 0"/></svg>