<?xml version="1.0" encoding="iso-8859-1"?>
<!-- Generator: Adobe Illustrator 19.0.0, SVG Export Plug-In . SVG Version: 6.00 Build 0)  -->
<svg version="1.1" id="Layer_1" xmlns="http://www.w3.org/2000/svg" xmlns:xlink="http://www.w3.org/1999/xlink" x="0px" y="0px"
	 viewBox="0 0 488 488" style="enable-background:new 0 0 488 488;" xml:space="preserve">
<g>
	<path style="fill:#66CEDB;" d="M44,360h88v120h48V344h64h64v136h48V360h88c17.672,0,32-14.328,32-32V208c0-17.672-14.328-32-32-32
		h-32h-8c-17.672,0-32,14.328-32,32v64h-48h-40v40h-80v-40h-40h-48v-64c0-17.672-14.328-32-32-32h-8H44c-17.672,0-32,14.328-32,32
		v120C12,345.672,26.328,360,44,360z"/>
	<polygon style="fill:#66CEDB;" points="268,176 244,176 220,176 244,240 	"/>
</g>
<path style="fill:#F6BF58;" d="M204,312h80v-40h40v-48c0-26.512-21.488-48-48-48h-8l-24,64l-24-64h-8c-26.512,0-48,21.488-48,48v48
	h40V312z"/>
<circle style="fill:#66CEDB;" cx="76" cy="128" r="48"/>
<circle style="fill:#F6BF58;" cx="244" cy="128" r="48"/>
<g>
	<circle style="fill:#66CEDB;" cx="412" cy="128" r="48"/>
	<polygon style="fill:#66CEDB;" points="164,48 204,48 204,8 92,8 92,48 132,48 132,72 	"/>
</g>
<g>
	<path style="fill:#010133;" d="M36,367.192V488h16V368h72v112c0,4.416,3.584,8,8,8h48c4.416,0,8-3.584,8-8V352h48v120h-32v16h80
		v-16h-32V352h48v128c0,4.416,3.584,8,8,8h48c4.416,0,8-3.584,8-8V368h72v120h16V367.192c18.232-3.72,32-19.872,32-39.192V208
		c0-19.864-14.592-36.264-33.592-39.352C461.208,158.432,468,144.008,468,128c0-30.88-25.12-56-56-56s-56,25.12-56,56
		c0,19.648,10.192,36.936,25.544,46.928C370.968,182.136,364,194.264,364,208v56h-32v-40c0-28.624-21.6-52.272-49.36-55.568
		C293.312,158.232,300,143.896,300,128c0-30.88-25.12-56-56-56s-56,25.12-56,56c0,15.896,6.688,30.232,17.36,40.432
		C177.6,171.728,156,195.376,156,224v40h-32v-56c0-13.736-6.968-25.864-17.544-33.072C121.808,164.936,132,147.648,132,128
		c0-30.88-25.12-56-56-56s-56,25.12-56,56c0,16.008,6.792,30.432,17.592,40.648C18.592,171.736,4,188.136,4,208v120
		C4,347.312,17.768,363.472,36,367.192z M300.896,336H187.104c-1.208-5.896-3.632-11.352-7.12-16H204h80h24.016
		C304.528,324.648,302.104,330.104,300.896,336z M372,128c0-22.056,17.944-40,40-40s40,17.944,40,40s-17.944,40-40,40
		S372,150.056,372,128z M372,280c4.416,0,8-3.584,8-8v-64c0-13.232,10.768-24,24-24h40c13.232,0,24,10.768,24,24v120
		c0,13.232-10.768,24-24,24h-88c-4.416,0-8,3.584-8,8v112h-32V344c0-13.232,10.768-24,24-24h72c4.416,0,8-3.584,8-8v-80h-16v72H292
		v-24H372z M256.456,184L244,217.216L231.544,184H256.456z M204,128c0-22.056,17.944-40,40-40s40,17.944,40,40s-17.944,40-40,40
		S204,150.056,204,128z M172,224c0-22.056,17.944-40,40-40h2.456l22.056,58.808c1.168,3.12,4.152,5.192,7.488,5.192
		s6.32-2.072,7.496-5.192L273.544,184H276c22.056,0,40,17.944,40,40v40h-32c-4.416,0-8,3.584-8,8v32h-64v-32c0-4.416-3.584-8-8-8
		h-32V224z M36,128c0-22.056,17.944-40,40-40s40,17.944,40,40s-17.944,40-40,40S36,150.056,36,128z M20,208
		c0-13.232,10.768-24,24-24h40c13.232,0,24,10.768,24,24v64c0,4.416,3.584,8,8,8h80v24H84v-72H68v80c0,4.416,3.584,8,8,8h72
		c13.232,0,24,10.768,24,24v128h-32V360c0-4.416-3.584-8-8-8H44c-13.232,0-24-10.768-24-24V208z"/>
	<rect x="236" y="264" style="fill:#010133;" width="16" height="16"/>
	<path style="fill:#010133;" d="M128.424,79.16c1.128,0.56,2.36,0.84,3.576,0.84c1.696,0,3.384-0.544,4.8-1.6L166.664,56H204
		c4.416,0,8-3.584,8-8V8c0-4.416-3.584-8-8-8H92c-4.416,0-8,3.584-8,8v40c0,4.416,3.584,8,8,8h32v16
		C124,75.032,125.712,77.8,128.424,79.16z M100,40V16h96v24h-32c-1.728,0-3.416,0.56-4.8,1.6L140,56v-8c0-4.416-3.584-8-8-8H100z"/>
	<rect x="284" y="24" style="fill:#010133;" width="16" height="16"/>
	<rect x="316" y="24" style="fill:#010133;" width="16" height="16"/>
	<rect x="348" y="24" style="fill:#010133;" width="16" height="16"/>
</g>
<g>
</g>
<g>
</g>
<g>
</g>
<g>
</g>
<g>
</g>
<g>
</g>
<g>
</g>
<g>
</g>
<g>
</g>
<g>
</g>
<g>
</g>
<g>
</g>
<g>
</g>
<g>
</g>
<g>
</g>
</svg>
