<svg height="512pt" viewBox="0 0 512 512" width="512pt" xmlns="http://www.w3.org/2000/svg"><path d="m299 469-23-110.5h-39.667969l-16 82.800781zm0 0" fill="#ffb954"/><path d="m200 241.269531v-47.945312c0-24.019531-6.945312-47.527344-20-67.691407-13.054688 20.164063-20 43.671876-20 67.691407v72.976562zm0 0" fill="#72d8ff"/><path d="m312 241.269531v-47.945312c0-24.019531 6.945312-47.527344 20-67.691407 13.054688 20.164063 20 43.671876 20 67.691407v72.976562zm0 0" fill="#72d8ff"/><path d="m502 502c0-28.996094-23.503906-52.5-52.5-52.5-18.753906 0-35.199219 9.839844-44.484375 24.632812-6.570313-2.347656-13.640625-3.632812-21.015625-3.632812-15.46875 0-29.609375 5.628906-40.523438 14.9375-7.78125-9.136719-19.359374-14.9375-32.296874-14.9375-5.160157 0-10.105469.925781-14.679688 2.609375-10.433594-19.96875-31.328125-33.609375-55.421875-33.609375-26.195313 0-48.613281 16.125-57.90625 38.984375-7.605469-11.390625-20.574219-18.898437-35.300781-18.898437-8.78125 0-16.9375 2.667968-23.707032 7.242187-11.253906-16.496094-30.191406-27.328125-51.664062-27.328125-34.519531 0-62.5 27.980469-62.5 62.5zm0 0" fill="#c9f3ff"/><path d="m312 234.492188v-76.949219c0-49.503907-14.3125-97.949219-41.21875-139.503907-6.9375-10.71875-22.625-10.71875-29.5625 0-26.90625 41.554688-41.21875 90-41.21875 139.503907v81.457031zm0 0" fill="#feda9b"/><path d="m241.21875 18.039062c-13.632812 21.054688-24.023438 43.878907-30.96875 67.710938h91.5c-6.945312-23.832031-17.335938-46.65625-30.96875-67.710938-6.9375-10.71875-22.625-10.71875-29.5625 0zm0 0" fill="#72d8ff"/><path d="m236 358.5h-119c0-38.78125 20.144531-74.777344 53.195312-95.066406l12.609376-7.738282c33.050781-20.285156 53.195312-56.285156 53.195312-95.066406v-.285156h40v.285156c0 38.78125 20.144531 74.78125 53.195312 95.066406l12.609376 7.738282c33.050781 20.289062 53.195312 56.285156 53.195312 95.066406zm0 0" fill="#898998"/><path d="m272.789062 151.5625c-7.882812-12.171875-25.695312-12.171875-33.578124 0-2.09375 3.238281-3.210938 7.011719-3.210938 10.871094v196.066406h40v-196.066406c0-3.859375-1.113281-7.632813-3.210938-10.871094zm0 0" fill="#72d8ff"/><path d="m449.5 439.5c-19.035156 0-36.648438 8.484375-48.453125 23.023438-5.5625-1.34375-11.273437-2.023438-17.046875-2.023438-14.140625 0-27.929688 4.152344-39.667969 11.828125-9.289062-7.597656-20.960937-11.828125-33.152343-11.828125-1.242188 0-2.476563.058594-3.703126.144531l-19.179687-92.144531h45.703125v31.398438c0 5.523437 4.476562 10 10 10s10-4.476563 10-10v-31.398438h41c5.523438 0 10-4.476562 10-10 0-20.734375-5.351562-41.257812-15.476562-59.351562-7.105469-12.699219-16.46875-24.011719-27.523438-33.382813v-72.441406c0-26.007813-7.472656-51.296875-21.605469-73.128907-1.84375-2.84375-5.003906-4.5625-8.394531-4.5625s-6.550781 1.71875-8.394531 4.5625c-1.21875 1.882813-2.367188 3.796876-3.488281 5.730469-4.789063-40.285156-18.695313-78.960937-40.941407-113.320312-5.109375-7.890625-13.773437-12.605469-23.175781-12.605469s-18.066406 4.714844-23.179688 12.605469c-22.242187 34.359375-36.152343 73.035156-40.941406 113.320312-1.117187-1.933593-2.265625-3.847656-3.484375-5.730469-1.84375-2.84375-5.003906-4.5625-8.394531-4.5625-3.394531 0-6.554688 1.71875-8.394531 4.5625-14.132813 21.832032-21.605469 47.121094-21.605469 73.128907v72.441406c-11.054688 9.371094-20.417969 20.683594-27.523438 33.382813-10.125 18.09375-15.476562 38.617187-15.476562 59.351562 0 5.523438 4.476562 10 10 10h49.5v61.832031c0 5.523438 4.476562 10 10 10s10-4.476562 10-10v-61.832031h37.714844l-13.023438 67.398438c-12.144531 5.476562-22.621094 14.246093-30.1875 25.480468-9.234375-7.539062-20.878906-11.792968-33.128906-11.792968-7.320312 0-14.460938 1.503906-21.054688 4.398437-13.679687-15.46875-33.398437-24.484375-54.320312-24.484375-39.976562 0-72.5 32.523438-72.5 72.5 0 5.523438 4.476562 10 10 10s10-4.476562 10-10c0-28.949219 23.550781-52.5 52.5-52.5 17.371094 0 33.59375 8.585938 43.402344 22.960938 3.101562 4.550781 9.296875 5.730468 13.855468 2.652343 5.355469-3.617187 11.621094-5.527343 18.113282-5.527343 10.855468 0 20.941406 5.402343 26.980468 14.449218 2.054688 3.082032 5.644532 4.769532 9.328126 4.398438 3.683593-.375 6.859374-2.753906 8.253906-6.183594 8.085937-19.894531 27.183594-32.75 48.644531-32.75 19.617187 0 37.457031 10.820312 46.554687 28.238281 2.332032 4.460938 7.605469 6.496094 12.324219 4.753907 3.585938-1.320313 7.359375-1.992188 11.21875-1.992188 9.507813 0 18.503907 4.160156 24.6875 11.421875 1.71875 2.019531 4.171875 3.269531 6.816407 3.484375 2.644531.203125 5.265624-.640625 7.285156-2.359375 9.484375-8.09375 21.574218-12.546875 34.035156-12.546875 6.046875 0 11.984375 1.023438 17.648438 3.050781 4.417968 1.570313 9.339843-.128906 11.832031-4.101562 7.84375-12.492188 21.308593-19.949219 36.019531-19.949219 23.433594 0 42.5 19.0625 42.5 42.5 0 5.519531 4.476562 10 10 10 5.519531 0 10-4.480469 10-10 0-34.464844-28.035156-62.5-62.5-62.5zm-203.5-91v-186.066406c0-1.933594.554688-3.8125 1.605469-5.4375 1.878906-2.898438 4.9375-4.5625 8.394531-4.5625s6.515625 1.664062 8.394531 4.5625v.003906c1.050781 1.621094 1.605469 3.5 1.605469 5.433594v186.066406zm138.496094 0h-98.496094v-121.097656c9.78125 14.859375 22.765625 27.488281 37.964844 36.816406l12.609375 7.738281c27.011719 16.578125 44.769531 45.28125 47.921875 76.542969zm-52.496094-202c6.574219 14.664062 10 30.578125 10 46.824219v58.496093l-7.574219-4.648437c-4.398437-2.699219-8.542969-5.726563-12.425781-9.027344v-44.820312c0-16.246094 3.425781-32.160157 10-46.824219zm-82.390625-123.023438c2.03125-3.136718 5.148437-3.476562 6.390625-3.476562s4.359375.339844 6.390625 3.476562c10.898437 16.832032 19.628906 34.792969 26.09375 53.496094h-64.96875c6.464844-18.703125 15.195313-36.664062 26.09375-53.496094zm-39.609375 134.066407c0-20.570313 2.554688-40.894531 7.535156-60.570313h76.929688c4.980468 19.675782 7.535156 40 7.535156 60.570313v57.613281c-10.246094-16.105469-16-35.019531-16-54.527344v-.285156c0-1.023438-.15625-2.003906-.4375-2.933594-.679688-4-2.148438-7.839844-4.378906-11.285156-5.554688-8.574219-14.96875-13.691406-25.183594-13.691406s-19.628906 5.117187-25.183594 13.691406c-2.230468 3.445312-3.699218 7.285156-4.378906 11.285156-.285156.929688-.4375 1.910156-.4375 2.933594v.285156c0 19.503906-5.753906 38.421875-16 54.527344zm-30-11.042969c6.574219 14.664062 10 30.578125 10 46.824219v44.820312c-3.882812 3.300781-8.027344 6.328125-12.425781 9.027344l-7.574219 4.648437v-58.496093c0-16.246094 3.425781-32.160157 10-46.824219zm-4.574219 125.457031 12.609375-7.738281c15.199219-9.328125 28.183594-21.957031 37.964844-36.816406v121.097656h-98.496094c3.152344-31.261719 20.910156-59.964844 47.921875-76.542969zm65.652344 157.542969c-2.824219 0-5.617187.167969-8.375.484375l11.882813-61.484375h23.28125l15.527343 74.609375c-12.09375-8.703125-26.796875-13.609375-42.316406-13.609375zm0 0"/><path d="m344 427c-2.628906 0-5.210938 1.070312-7.070312 2.929688-1.859376 1.859374-2.929688 4.441406-2.929688 7.070312 0 2.640625 1.070312 5.210938 2.929688 7.070312 1.859374 1.867188 4.441406 2.929688 7.070312 2.929688s5.210938-1.0625 7.070312-2.929688c1.859376-1.859374 2.929688-4.429687 2.929688-7.070312 0-2.628906-1.070312-5.210938-2.929688-7.070312-1.859374-1.859376-4.441406-2.929688-7.070312-2.929688zm0 0"/><path d="m109 206.257812c5.523438 0 10-4.476562 10-10v-71.832031c0-5.523437-4.476562-10-10-10s-10 4.476563-10 10v71.832031c0 5.523438 4.476562 10 10 10zm0 0"/><path d="m109 253.964844c5.523438 0 10-4.480469 10-10v-3.410156c0-5.519532-4.476562-10-10-10s-10 4.480468-10 10v3.410156c0 5.519531 4.476562 10 10 10zm0 0"/></svg>