<svg height="512pt" viewBox="-15 0 511 512" width="512pt" xmlns="http://www.w3.org/2000/svg"><path d="m266.546875 106.117188c-8.09375-14.140626-26.402344-19.460938-40.929687-11.164063l-195.117188 111.503906v69.089844l224.882812-128.5c14.355469-8.203125 19.367188-26.558594 11.164063-40.929687zm0 0" fill="#ffa78f"/><path d="m195.5 286h286v30h-286zm0 0" fill="#54469d"/><path d="m195.5 301h286v15h-286zm0 0" fill="#392e6e"/><path d="m451.5 384.785156 21.210938 21.210938-21.210938 21.210937-21.210938-21.210937zm0 0" fill="#fdbf00"/><path d="m421.5 181v30h-30v30h-30v-30h-30v-30h30v-30h30v30zm0 0" fill="#a8ebfa"/><path d="m421.5 181v30h-30v30h-15v-90h15v30zm0 0" fill="#76e2f8"/><path d="m391.5 451v30h-30v30h-30v-30h-30v-30h30v-30h30v30zm0 0" fill="#a8ebfa"/><path d="m391.5 451v30h-30v30h-15v-90h15v30zm0 0" fill="#76e2f8"/><path d="m167.140625 36.039062c-14.304687-9.523437-32.648437-5.09375-41.601563 8.320313l-95.039062 142.5625v108.171875l144.960938-217.453125c9.214843-13.835937 5.417968-32.453125-8.320313-41.601563zm0 0" fill="#ffbfab"/><path d="m206 301c19.5 0 34.800781-19.199219 28.5-37.800781-16.5-49.199219-62.101562-82.199219-114-82.199219-21 0-42 5.699219-60 16.199219v-167.199219c0-16.5-13.5-30-30-30s-30 13.5-30 30v482h120v-91c51.898438 0 97.5-33 114-82.199219 6.300781-18.902343-9-37.800781-28.5-37.800781zm-28.496094 18.898438c-8.402344 24.601562-31.203125 41.101562-57.003906 41.101562-32.996094 0-60-27-60-60s27.003906-60 60-60c25.800781 0 48.601562 16.5 57.003906 41.101562 3.898438 11.398438 13.199219 18.898438 24 18.898438-10.800781 0-20.101562 7.5-24 18.898438zm0 0" fill="#ffcebf"/><path d="m234.5 338.800781c-16.5 49.199219-62.097656 82.199219-114 82.199219v91h-120v-211h60c0 33 27.003906 60 60 60 25.800781 0 48.601562-16.5 57.003906-41.101562 3.898438-11.398438 13.199219-18.898438 24-18.898438h4.496094c19.5 0 34.800781 18.898438 28.5 37.800781zm0 0" fill="#ffbfab"/></svg>