<svg height="512pt" viewBox="-40 0 512 512" width="512pt" xmlns="http://www.w3.org/2000/svg"><g fill-rule="evenodd"><path d="m81.371094 271.410156c35.480468 0 64.414062-13.667968 64.414062-30.425781 0-16.761719-28.933594-30.429687-64.414062-30.429687-35.476563 0-64.414063 13.667968-64.414063 30.429687 0 16.757813 28.9375 30.425781 64.414063 30.425781zm0 0" fill="#fec96b"/><path d="m81.371094 10c39.417968 0 71.371094 31.953125 71.371094 71.371094 0 10.203125-2.144532 19.90625-6.003907 28.6875l-65.367187 130.925781-65.367188-130.925781c-3.855468-8.78125-6.003906-18.480469-6.003906-28.6875 0-39.417969 31.953125-71.371094 71.371094-71.371094zm0 0" fill="#ff5d5d"/><path d="m81.371094 112.4375c17.109375 0 31.066406-13.957031 31.066406-31.066406s-13.957031-31.0625-31.066406-31.0625-31.0625 13.953125-31.0625 31.0625 13.953125 31.066406 31.0625 31.066406zm0 0" fill="#a0e557"/><path d="m357.363281 332.863281c35.480469 0 64.414063-13.671875 64.414063-30.429687 0-16.761719-28.933594-30.429688-64.414063-30.429688-35.476562 0-64.414062 13.667969-64.414062 30.429688 0 16.757812 28.9375 30.429687 64.414062 30.429687zm0 0" fill="#fec96b"/><path d="m192.96875 502c35.476562 0 64.414062-13.671875 64.414062-30.429688 0-16.757812-28.9375-30.429687-64.414062-30.429687-35.480469 0-64.414062 13.671875-64.414062 30.429687 0 16.757813 28.933593 30.429688 64.414062 30.429688zm0 0" fill="#fec96b"/><path d="m122.4375 81.371094c0-22.640625-18.421875-41.0625-41.066406-41.0625-22.640625 0-41.0625 18.421875-41.0625 41.0625 0 22.644531 18.421875 41.0625 41.0625 41.0625 22.644531.003906 41.066406-18.417969 41.066406-41.0625zm-62.128906 0c0-11.613282 9.449218-21.0625 21.0625-21.0625 11.617187 0 21.066406 9.449218 21.066406 21.0625 0 11.613281-9.449219 21.0625-21.066406 21.0625-11.613282.003906-21.0625-9.449219-21.0625-21.0625zm0 0"/><path d="m357.363281 262.003906c-25.769531 0-47.671875 6.421875-60.910156 16.625l-35.863281-7.984375c-5.378906-1.199219-10.730469 2.195313-11.933594 7.585938-1.199219 5.390625 2.195312 10.734375 7.589844 11.933593l27.488281 6.121094c-.511719 1.996094-.785156 4.050782-.785156 6.148438 0 13.585937 11.121093 25.195312 28.933593 32.445312l-16.011718 16.472656c-3.847656 3.960938-3.757813 10.292969.203125 14.140626 1.941406 1.890624 4.457031 2.828124 6.96875 2.828124 2.605469 0 5.210937-1.011718 7.171875-3.027343l23.65625-24.339844c7.328125 1.238281 15.207031 1.910156 23.492187 1.910156 42.421875 0 74.414063-17.382812 74.414063-40.429687s-31.992188-40.429688-74.414063-40.429688zm0 60.859375c-32.710937 0-54.414062-12.296875-54.414062-20.429687 0-1.703125.960937-3.585938 2.761719-5.5.308593-.269532.601562-.554688.871093-.867188 7.464844-6.972656 25.941407-14.0625 50.78125-14.0625 32.710938 0 54.414063 12.296875 54.414063 20.429688 0 8.132812-21.703125 20.429687-54.414063 20.429687zm0 0"/><path d="m238.449219 439.128906 16.011719-16.476562c3.847656-3.960938 3.757812-10.289063-.203126-14.140625-3.957031-3.847657-10.289062-3.757813-14.140624.203125l-23.65625 24.335937c-7.328126-1.238281-15.207032-1.910156-23.492188-1.910156-42.421875 0-74.414062 17.382813-74.414062 40.429687 0 23.046876 31.992187 40.429688 74.414062 40.429688s74.414062-17.382812 74.414062-40.429688c0-13.585937-11.121093-25.195312-28.933593-32.441406zm-45.480469 52.871094c-32.710938 0-54.414062-12.296875-54.414062-20.429688 0-8.132812 21.703124-20.429687 54.414062-20.429687s54.414062 12.296875 54.414062 20.429687c0 8.132813-21.703124 20.429688-54.414062 20.429688zm0 0"/><path d="m178.144531 272.773438c.734375.164062 1.460938.242187 2.183594.242187 4.582031 0 8.714844-3.171875 9.75-7.828125 1.199219-5.390625-2.195313-10.734375-7.585937-11.933594l-27.492188-6.125c.515625-1.996094.785156-4.046875.785156-6.148437 0-18.738281-20.84375-31.394531-44.71875-37.085938l44.621094-89.371093c.070312-.144532.140625-.292969.207031-.441407 4.542969-10.339843 6.847657-21.34375 6.847657-32.710937 0-44.867188-36.5-81.371094-81.371094-81.371094-44.867188 0-81.371094 36.503906-81.371094 81.371094 0 11.363281 2.304688 22.367187 6.851562 32.710937.0625.148438.132813.296875.207032.441407l44.664062 89.460937c-23.9375 5.828125-44.765625 18.488281-44.765625 37 0 23.046875 31.992188 40.425781 74.414063 40.425781 25.769531 0 47.675781-6.421875 60.914062-16.621094zm-158.144531-191.402344c0-33.839844 27.53125-61.371094 61.371094-61.371094s61.371094 27.53125 61.371094 61.371094c0 8.5-1.703126 16.722656-5.0625 24.445312l-56.308594 112.78125-56.304688-112.78125c-3.363281-7.726562-5.066406-15.949218-5.066406-24.445312zm6.957031 159.613281c0-5.253906 13.023438-14.386719 33.972657-18.558594l11.496093 23.023438c1.691407 3.390625 5.15625 5.53125 8.945313 5.53125 3.789062 0 7.253906-2.140625 8.949218-5.53125l11.523438-23.085938c21.1875 4.019531 33.941406 13.128907 33.941406 18.617188 0 1.707031-.96875 3.597656-2.777344 5.519531-.304687.269531-.59375.550781-.863281.855469-7.464843 6.96875-25.941406 14.054687-50.773437 14.054687-32.710938 0-54.414063-12.292968-54.414063-20.425781zm0 0"/><path d="m275.164062 377.003906c-5.507812 0-10 4.488282-10 10 0 5.507813 4.492188 10 10 10 5.507813 0 10-4.492187 10-10 0-5.511718-4.492187-10-10-10zm0 0"/><path d="m219.367188 281.707031c5.507812 0 10-4.492187 10-10 0-5.507812-4.492188-10-10-10-5.507813 0-10 4.492188-10 10 0 5.507813 4.492187 10 10 10zm0 0"/></g></svg>